<svg id="Layer_1" data-name="Layer 1" xmlns="http://www.w3.org/2000/svg" viewBox="0 0 287.38 137.65"><defs><style>.cls-1{fill:#d5a435;}.cls-2{fill:#422918;}.cls-3{fill:#739245;}.cls-4{fill:#91bc48;}</style></defs><title>logo-web</title><path class="cls-1" d="M193.19,54.27A54.8,54.8,0,0,0,97.66,19.1c-7.59,8.44-14.2,21.09-13.89,32.75a0.58,0.58,0,0,0,.65.66,0.63,0.63,0,0,0,.74-0.66c2.16-21.36,18.37-38.6,38.86-44s43.19,1.11,56.76,17.5A48.49,48.49,0,0,1,191.84,55.8c0,0.85,0,1.71,0,2.57a0.69,0.69,0,0,0,1.38,0Q193.28,56.3,193.19,54.27Z"/><path class="cls-2" d="M7.12,136.75l-6-18H4.5l4.33,14H9l4.41-14h3.25l-6.06,18H7.12Z"/><path class="cls-2" d="M22.91,136.75v-18h3.3v18h-3.3Z"/><path class="cls-2" d="M38.48,136.75l-6-18h3.36l4.33,14h0.14l4.41-14H48l-6.06,18H38.48Z"/><path class="cls-2" d="M98.69,137.08c-4.82,0-7.69-3.11-7.69-9.29,0-6.93,4.2-9.37,8-9.37,4,0,7.53,2.49,7.53,9.37C106.52,134,103.43,137.08,98.69,137.08Zm0.19-2.73c3.28,0,4.28-3.22,4.28-6.47,0-2.76-.87-6.66-4.33-6.66-3.25,0-4.44,3.22-4.44,6.44S95.17,134.34,98.88,134.34Z"/><path class="cls-2" d="M113.53,132.64a10.63,10.63,0,0,0,5,1.57c1.43,0,2.9-.46,2.9-2.49,0-1.71-1.54-2.22-3.44-2.73-2.68-.73-5.17-1.79-5.17-5.25,0-3.3,2.54-5.31,6.09-5.31a8.86,8.86,0,0,1,6.2,2.54l-1.76,2.19a7.27,7.27,0,0,0-4.44-1.92c-1.22,0-2.65.51-2.65,2.19s1.57,2.19,3.6,2.82c2.46,0.79,5.06,1.84,5.06,5.33s-2.55,5.5-6.44,5.5a12.09,12.09,0,0,1-6.17-1.73Z"/><path class="cls-2" d="M159.75,118.75h4.68v13.91h7.17v4.09H159.75v-18Z"/><path class="cls-2" d="M199.32,118.75v4.06h-5.19v13.94H189.5V122.81h-5v-4.06h14.8Z"/><path class="cls-2" d="M238.57,118.75h4.79l0.95,18h-4.44l-0.51-9.5h-0.08l-2.9,7.69h-3.25l-2.87-7.42h-0.11l-0.51,9.23h-4.41l1-18h4.85L234.81,129h0.11Z"/><path class="cls-2" d="M257.85,118.75c3.25,0,6.06.95,6.06,4.63a4.51,4.51,0,0,1-2,3.68,4.21,4.21,0,0,1,2.92,4.14c0,3.6-2.6,5.55-7.34,5.55h-6.52v-18h6.9Zm-2.25,7.09h1.33c1.57,0,2.27-.84,2.27-1.9,0-1.41-.92-1.81-2.11-1.81H255.6v3.71Zm0,7.36h1.73c1.9,0,2.55-.81,2.55-2.11s-0.89-1.95-2.41-1.95H255.6v4.06Z"/><path class="cls-2" d="M278.48,137.08c-5,0-8-3.17-8-9.29,0-6.93,4.44-9.37,8.37-9.37,4.17,0,7.8,2.49,7.8,9.37C286.63,133.94,283.38,137.08,278.48,137.08Zm0.19-3.84c2.49,0,3.22-2.63,3.22-5.36,0-2.27-.6-5.58-3.33-5.58-2.44,0-3.3,2.63-3.3,5.31C275.26,130.12,275.8,133.23,278.67,133.23Z"/><path class="cls-3" d="M187.46,79.37a25.37,25.37,0,0,0,10-5.73,21.37,21.37,0,0,0,5.25-7.22c-10.15,2.5-20.62,6.8-28.47,13.74C178.31,82,183.92,80.49,187.46,79.37Z"/><path class="cls-3" d="M120.17,79.4c-17.64-8-35.94-15.69-55.51-16.76,1.57,8.47,6.22,15.68,12.5,21.52A72,72,0,0,0,98.3,98c18.67,7.65,39.92,3.75,58-3.53-3.67-1.1-7.29-2.46-10.85-3.91C136.94,87.12,128.58,83.2,120.17,79.4Z"/><path class="cls-4" d="M197,79.48c-6.84,12.79-21.73,14.39-34.67,11.85a47.7,47.7,0,0,1,9.38-11.71,1.07,1.07,0,0,1,.29-0.43c8.53-7.86,20.22-12.62,31.43-15.23a1,1,0,0,0-.37-0.33c-12.31-6.47-28.86-.75-31.82,13.45A49.17,49.17,0,0,0,160,90.84c-1.21-.29-2.4-0.61-3.56-1a1.12,1.12,0,0,0-.41,0c-6.42-14.9-20.53-25.11-35.43-30.66a67.64,67.64,0,0,0-25.5-4.49c-10,.29-19.89,2.83-29.47,5.65a1.15,1.15,0,0,0-.25.12c18.27,1.15,35.45,7.88,52,15.26,8.85,3.94,17.6,8.11,26.53,11.86a131.53,131.53,0,0,0,13,4.82s0,0,0,0c14.81,4.18,33.76,3.53,41.95-11.76A1.12,1.12,0,0,0,197,79.48Z"/><path class="cls-2" d="M83.43,133c-0.41-.5-1.66-2.44-2.54-3.82,0.3-.09.57-0.18,0.72-0.25,3.3-1.41,3-5.25,3-5.25,0-3.68-2.52-5-6.5-5h-6v18h3.3v-7.09s0.8,0,2.45,0l3,4.85a4.8,4.8,0,0,0,3.86,2.28h1.66v-2.67S84.34,134.16,83.43,133Zm-8.08-11.67h1.9c2.57,0,4,.3,4,2.6a2.85,2.85,0,0,1-3.17,3.11H75.35v-5.71Z"/><path class="cls-2" d="M217.37,126.59a49.37,49.37,0,0,0-3.6-7.84h-5.21a50.82,50.82,0,0,0-3.39,7.84,93.66,93.66,0,0,0-2.47,10.16h4.66s0.25-1.67.68-3.86h6.29c0.47,2.2.73,3.86,0.73,3.86H220A89,89,0,0,0,217.37,126.59Zm-8.58,2.91c0.25-1,.53-2,0.83-2.93A36.76,36.76,0,0,1,211,123h0.18a35.5,35.5,0,0,1,1.47,3.54c0.32,0.92.62,1.92,0.88,2.93h-4.73Z"/><path class="cls-2" d="M147.29,132.69a1.29,1.29,0,0,1-1.24-1.29h0V129.6h6.12v-4.06H146v-2.73h7.12v-4.06H141.39v14.38a3.66,3.66,0,0,0,3.66,3.62h8.31v-4.06h-6.07Z"/><path class="cls-2" d="M58.82,133.88h0a1.3,1.3,0,0,1-1.3-1.3h0V129H64v-2.87H57.51v-4.52h7.55v-2.87H54.21V133.1a3.66,3.66,0,0,0,3.66,3.66h7.39v-2.87H58.82Z"/></svg>